<svg version="1.1" id="Layer_1" xmlns="http://www.w3.org/2000/svg" xmlns:xlink="http://www.w3.org/1999/xlink" x="0px" y="0px"
	 width="100%" viewBox="0 0 1080 1080" enable-background="new 0 0 1080 1080" xml:space="preserve">
<path fill="none" opacity="1.000000" stroke="#000000" stroke-linecap="round" stroke-linejoin="round" stroke-width="2.000000"
	d="
M429.500000,721.500000 
	C428.401215,728.833313 429.316101,736.166687 428.937897,742.837585 
	C432.492065,745.105774 435.733948,745.034241 439.000092,745.017395 
	C448.499847,744.968323 458.002106,745.130737 467.499664,744.978394 
	C521.498047,744.112610 575.499939,744.610596 629.500061,744.586853 
	C633.493774,744.585083 634.754272,743.509338 634.603088,739.496094 
	C634.415588,734.514893 634.160156,729.502136 634.929260,724.489136 
	C635.456238,721.053833 633.695740,718.895264 630.000549,719.016174 
	C616.462769,719.459106 602.997864,718.057190 589.500000,717.500000 
"/>
<path fill="none" opacity="1.000000" stroke="#000000" stroke-linecap="round" stroke-linejoin="round" stroke-width="3.000000"
	d="
M227.500000,527.500000 
	C226.467407,527.512085 225.589203,528.320312 225.571854,529.001831 
	C225.440445,534.165161 225.534317,539.333679 225.483704,544.499817 
	C225.462372,546.677002 227.273254,546.612488 228.517914,546.929749 
	C229.769897,547.248901 231.166672,547.000000 232.500000,547.000000 
	C313.666656,547.000000 394.833344,547.003845 476.000000,546.979004 
	C478.166687,546.978394 480.333344,546.666626 482.500000,546.499939 
"/>
<path fill="none" opacity="1.000000" stroke="#000000" stroke-linecap="round" stroke-linejoin="round" stroke-width="2.000000"
	d="
M642.500000,299.500000 
	C638.833313,299.166656 635.166992,298.546539 631.499939,298.542816 
	C571.833313,298.482391 512.166565,298.454102 452.500214,298.588959 
	C447.832031,298.599487 443.335510,296.439087 438.428558,298.312927 
	C435.985779,299.245728 434.864136,299.819702 434.951202,302.501587 
	C435.118683,307.662811 435.168823,312.840942 434.937195,317.997192 
	C434.796417,321.130951 436.364258,322.508026 439.005066,322.971069 
	C446.941223,324.362579 454.963867,325.256012 463.001770,325.354279 
	C465.900940,325.389709 467.709686,327.922058 470.500000,327.500000 
"/>
<path fill="none" opacity="1.000000" stroke="#000000" stroke-linecap="round" stroke-linejoin="round" stroke-width="2.000000"
	d="
M327.500000,241.500000 
	C327.500000,320.833344 327.500000,400.166656 327.500000,479.500000 
"/>
<path fill="none" opacity="1.000000" stroke="#000000" stroke-linecap="round" stroke-linejoin="round" stroke-width="2.000000"
	d="
M750.000000,728.000000 
	C752.612488,732.601624 756.630615,736.182861 759.095398,740.950684 
	C760.718933,744.091248 764.045349,744.556763 767.500122,744.545227 
	C792.666565,744.461060 817.833313,744.518250 843.000000,744.490356 
	C852.166748,744.480164 861.320251,745.543823 870.507874,744.574463 
	C873.307129,744.279175 874.836121,744.071106 875.162292,740.514893 
	C875.684692,734.820923 875.305237,729.165527 875.454407,723.498779 
	C875.520081,721.003113 873.955017,719.124817 871.498413,719.068604 
	C862.137878,718.854309 853.612427,714.781311 844.500000,713.500000 
"/>
<path fill="none" opacity="1.000000" stroke="#000000" stroke-linecap="round" stroke-linejoin="round" stroke-width="2.000000"
	d="
M370.500000,208.500000 
	C372.910065,208.813950 372.964905,207.095856 372.983582,205.499802 
	C373.032349,201.333710 372.950470,197.165909 373.014771,193.000229 
	C373.072327,189.269150 370.533325,189.487686 368.000000,189.490448 
	C351.166656,189.508881 334.333344,189.500000 317.500000,189.500000 
	C290.500000,189.500000 263.500000,189.498337 236.500000,189.501190 
	C230.000000,189.501877 230.000000,189.508789 230.000000,196.000000 
	C230.000000,199.000000 229.989609,202.000046 230.004013,204.999985 
	C230.012360,206.740356 229.665405,208.762802 232.500000,208.500000 
"/>
<path fill="none" opacity="1.000000" stroke="#000000" stroke-linecap="round" stroke-linejoin="round" stroke-width="2.000000"
	d="
M555.500000,336.500000 
	C555.500000,388.833344 555.490234,441.166656 555.526672,493.499969 
	C555.528625,496.330994 555.023865,499.214294 556.000000,502.000000 
"/>
<path fill="none" opacity="1.000000" stroke="#000000" stroke-linecap="round" stroke-linejoin="round" stroke-width="2.000000"
	d="
M556.500000,534.500000 
	C554.481201,534.938171 555.552917,536.525208 555.551514,537.500061 
	C555.491638,579.000000 555.395020,620.500549 555.609375,661.999451 
	C555.642822,668.478760 556.740784,674.970581 556.500000,681.500000 
"/>
<path fill="none" opacity="1.000000" stroke="#000000" stroke-linecap="round" stroke-linejoin="round" stroke-width="3.000000"
	d="
M779.500000,375.500000 
	C781.802734,383.688843 783.375793,391.920624 784.260681,400.473022 
	C785.722473,414.601746 784.683105,428.390839 781.370422,441.968384 
	C778.212219,454.912842 773.183411,467.229919 765.000000,478.000000 
"/>
<path fill="none" opacity="1.000000" stroke="#000000" stroke-linecap="round" stroke-linejoin="round" stroke-width="2.000000"
	d="
M750.000000,625.000000 
	C766.500000,644.833313 782.777832,664.857605 799.589478,684.423096 
	C808.595703,694.904480 819.421692,703.357727 832.500000,708.500000 
"/>
<path fill="none" opacity="1.000000" stroke="#000000" stroke-linecap="round" stroke-linejoin="round" stroke-width="2.000000"
	d="
M624.500000,327.500000 
	C605.666687,327.500000 586.832886,327.562836 568.000366,327.442230 
	C564.600708,327.420471 561.424927,327.684937 558.500000,329.500000 
"/>
<path fill="none" opacity="1.000000" stroke="#000000" stroke-linecap="round" stroke-linejoin="round" stroke-width="2.000000"
	d="
M492.500000,613.500000 
	C492.500000,629.666687 492.490326,645.833313 492.506256,662.000000 
	C492.510712,666.500061 491.285950,671.000000 492.500000,675.500000 
"/>
<path fill="none" opacity="1.000000" stroke="#000000" stroke-linecap="round" stroke-linejoin="round" stroke-width="2.000000"
	d="
M235.500000,209.500000 
	C241.500000,210.333344 247.511200,211.094116 253.497238,212.017883 
	C261.443237,213.244125 270.078278,218.503738 272.715454,227.939789 
	C274.164062,233.123123 274.510376,238.331329 275.500000,243.500000 
"/>
<path fill="none" opacity="1.000000" stroke="#000000" stroke-linecap="round" stroke-linejoin="round" stroke-width="2.000000"
	d="
M776.500000,370.500000 
	C774.503784,361.228333 768.418579,354.116180 762.765198,347.191711 
	C757.770264,341.073639 751.878845,335.344635 745.000000,331.000000 
"/>
<path fill="none" opacity="1.000000" stroke="#000000" stroke-linecap="round" stroke-linejoin="round" stroke-width="2.000000"
	d="
M472.500000,713.500000 
	C469.134827,713.018677 466.589935,715.403748 463.518127,716.082153 
	C455.420105,717.870300 447.253601,718.548523 439.000122,718.483521 
	C436.438019,718.463318 433.913452,718.517456 431.500000,719.500000 
"/>
<path fill="none" opacity="1.000000" stroke="#000000" stroke-linecap="round" stroke-linejoin="round" stroke-width="2.000000"
	d="
M764.000000,479.000000 
	C757.063416,489.343872 747.801453,497.223907 737.497314,503.995880 
	C736.183655,504.859192 734.833313,505.666656 733.500000,506.500000 
"/>
<path fill="none" opacity="1.000000" stroke="#000000" stroke-linecap="round" stroke-linejoin="round" stroke-width="2.000000"
	d="
M425.500000,523.500000 
	C413.833344,523.500000 402.166656,523.500000 390.500000,523.500000 
"/>
<path fill="none" opacity="1.000000" stroke="#000000" stroke-linecap="round" stroke-linejoin="round" stroke-width="2.000000"
	d="
M724.000000,695.000000 
	C732.333313,705.666687 740.666626,716.333374 749.000000,727.000000 
"/>
<path fill="none" opacity="1.000000" stroke="#000000" stroke-linecap="round" stroke-linejoin="round" stroke-width="2.000000"
	d="
M364.500000,209.500000 
	C359.034210,209.485519 353.876312,211.403641 348.529419,212.198090 
	C341.921997,213.179855 336.793518,217.398453 333.000000,223.000000 
"/>
<path fill="none" opacity="1.000000" stroke="#000000" stroke-linecap="round" stroke-linejoin="round" stroke-width="2.000000"
	d="
M725.500000,595.500000 
	C733.333313,605.000000 741.166687,614.500000 749.000000,624.000000 
"/>
<path fill="none" opacity="1.000000" stroke="#000000" stroke-linecap="round" stroke-linejoin="round" stroke-width="2.000000"
	d="
M491.500000,678.500000 
	C490.663910,688.221313 488.844086,697.600220 482.534943,705.527832 
	C481.625793,706.670166 480.843018,707.843018 479.500000,708.500000 
"/>
<path fill="none" opacity="1.000000" stroke="#000000" stroke-linecap="round" stroke-linejoin="round" stroke-width="2.000000"
	d="
M722.500000,317.000000 
	C716.666687,314.833313 710.914368,312.401001 704.973145,310.587952 
	C700.585632,309.249023 696.259033,307.334320 691.500000,307.500000 
"/>
<path fill="none" opacity="1.000000" stroke="#000000" stroke-linecap="round" stroke-linejoin="round" stroke-width="2.000000"
	d="
M276.000000,489.500000 
	C274.507080,495.079681 275.103851,501.030273 272.996765,506.498749 
	C271.269714,510.980804 269.488495,515.434021 265.000000,518.000000 
"/>
<path fill="none" opacity="1.000000" stroke="#000000" stroke-linecap="round" stroke-linejoin="round" stroke-width="2.000000"
	d="
M731.000000,508.000000 
	C722.626648,513.410034 713.541748,517.218994 704.000000,520.000000 
"/>
<path fill="none" opacity="1.000000" stroke="#000000" stroke-linecap="round" stroke-linejoin="round" stroke-width="2.000000"
	d="
M677.000000,304.000000 
	C668.349915,301.445923 659.502686,300.384277 650.500000,300.500000 
"/>
<path fill="none" opacity="1.000000" stroke="#000000" stroke-linecap="round" stroke-linejoin="round" stroke-width="2.000000"
	d="
M703.500000,521.000000 
	C697.321167,521.528442 691.783936,524.613708 685.538025,525.330933 
	C682.978088,525.624939 680.214905,526.257324 677.500000,526.500000 
"/>
<path fill="none" opacity="1.000000" stroke="#000000" stroke-linecap="round" stroke-linejoin="round" stroke-width="3.000000"
	d="
M255.500000,523.500000 
	C246.800812,523.995178 238.315720,526.716858 229.500000,526.000000 
"/>
<path fill="none" opacity="1.000000" stroke="#000000" stroke-linecap="round" stroke-linejoin="round" stroke-width="2.000000"
	d="
M630.500000,500.500000 
	C622.932739,502.309662 615.096680,501.028229 607.500000,502.500000 
"/>
<path fill="none" opacity="1.000000" stroke="#000000" stroke-linecap="round" stroke-linejoin="round" stroke-width="2.000000"
	d="
M707.500000,402.500000 
	C707.500000,409.166656 707.500000,415.833344 707.500000,422.500000 
"/>
<path fill="none" opacity="1.000000" stroke="#000000" stroke-linecap="round" stroke-linejoin="round" stroke-width="2.000000"
	d="
M711.500000,678.500000 
	C715.333313,683.666687 719.166626,688.833313 723.000000,694.000000 
"/>
<path fill="none" opacity="1.000000" stroke="#000000" stroke-linecap="round" stroke-linejoin="round" stroke-width="3.000000"
	d="
M645.500000,329.500000 
	C640.166687,329.166656 634.833313,328.833313 629.500000,328.500000 
"/>
<path fill="none" opacity="1.000000" stroke="#000000" stroke-linecap="round" stroke-linejoin="round" stroke-width="2.000000"
	d="
M711.000000,578.000000 
	C713.262085,581.354492 716.767334,583.727539 718.500000,587.500000 
"/>
<path fill="none" opacity="1.000000" stroke="#000000" stroke-linecap="round" stroke-linejoin="round" stroke-width="2.000000"
	d="
M700.000000,565.000000 
	C702.242859,568.369690 705.837219,570.672363 707.500000,574.500000 
"/>
<path fill="none" opacity="1.000000" stroke="#000000" stroke-linecap="round" stroke-linejoin="round" stroke-width="2.000000"
	d="
M744.000000,330.000000 
	C740.772949,328.270935 738.499207,324.895325 734.500000,324.500000 
"/>
</svg>